<svg version="1.1" id="Layer_1" xmlns="http://www.w3.org/2000/svg" xmlns:xlink="http://www.w3.org/1999/xlink" x="0px" y="0px"
	 width="100%" viewBox="0 0 896 400" enable-background="new 0 0 896 400" xml:space="preserve">
<path fill="#000000" opacity="1.000000" stroke="none" 
	d="
M290.250732,310.149109 
	C280.190186,325.735077 266.783417,336.424438 249.158539,341.343689 
	C245.234741,342.438812 243.875839,344.217896 243.972458,348.277344 
	C244.241974,359.602692 243.948013,370.940857 244.173431,382.268066 
	C244.260101,386.623352 243.173584,388.442963 238.336792,388.421539 
	C198.177704,388.243591 158.017487,388.319214 117.857613,388.313873 
	C116.858543,388.313751 115.853127,388.325653 114.861931,388.223083 
	C113.437714,388.075714 112.126968,387.525909 112.202866,385.861206 
	C112.278862,384.194275 113.678528,383.743317 115.072571,383.726898 
	C120.737068,383.660278 126.402496,383.676056 132.067429,383.638245 
	C132.865524,383.632935 133.662766,383.499054 134.456116,383.043610 
	C128.612839,381.800262 122.676270,383.685394 116.832184,382.478516 
	C114.974556,382.094879 112.149048,382.904144 112.331238,380.020386 
	C112.494713,377.433014 115.224312,377.780975 117.174728,377.764832 
	C122.888741,377.717529 128.603394,377.748047 134.317780,377.748047 
	C134.314285,377.327850 134.310791,376.907623 134.307297,376.487427 
	C128.395767,376.487427 122.484192,376.500427 116.572739,376.479553 
	C114.780334,376.473236 112.304688,376.860657 112.211197,374.395447 
	C112.105835,371.617523 114.743431,371.779785 116.694611,371.759186 
	C122.817276,371.694611 128.941040,371.735413 135.017242,371.735413 
	C136.409561,366.527618 131.070038,362.886078 133.342834,358.281067 
	C136.479691,357.191132 137.937653,359.630219 139.019897,361.372986 
	C144.710922,370.537231 152.832870,372.473175 163.179977,371.980438 
	C180.804016,371.141205 198.496490,371.750580 216.160172,371.726776 
	C222.702271,371.717957 222.712921,371.686462 222.738373,364.964142 
	C222.759186,359.465118 222.627853,353.962219 222.797348,348.468231 
	C222.913513,344.702515 222.090195,342.943573 217.676117,343.757141 
	C213.440796,344.537811 209.048569,343.621155 204.832764,342.739685 
	C200.501083,341.833954 197.669128,339.256775 197.723465,334.434845 
	C197.776550,329.723785 200.793442,327.580109 204.886429,326.797180 
	C211.078659,325.612610 217.409149,325.069733 223.534241,323.630188 
	C244.301346,318.749481 256.945160,301.287109 255.644196,279.720245 
	C254.474060,260.322235 238.709335,244.639526 218.193222,242.359879 
	C214.008713,241.894913 211.719391,242.975662 211.276154,247.720764 
	C209.972183,261.679840 200.204056,272.572662 186.625870,275.774017 
	C173.227264,278.933075 157.868546,273.096100 151.148743,261.130920 
	C148.030960,255.579468 144.478760,253.759064 138.513748,254.236877 
	C132.884552,254.687759 127.186249,254.192062 121.525597,254.358963 
	C116.533928,254.506134 111.697128,254.787170 112.296463,250.148117 
	C115.324913,269.226257 110.570282,289.859161 104.288109,310.274628 
	C102.135567,317.269836 99.942467,324.295532 97.095451,331.022736 
	C93.803589,338.801178 91.572014,346.520233 92.195984,355.143219 
	C92.668640,361.675232 87.901848,367.231018 80.489983,366.584442 
	C69.588181,365.633453 64.353203,371.449890 59.067062,379.182281 
	C53.987469,386.612549 51.607925,386.841614 43.533020,383.099548 
	C41.635513,383.419678 41.202442,385.296875 40.088501,386.456268 
	C38.405781,388.207611 36.401707,388.957245 34.252518,387.679199 
	C31.828825,386.237823 31.680292,383.829651 32.777962,381.532715 
	C33.472668,380.078949 34.641232,378.791107 35.797585,377.628021 
	C45.548935,367.820221 55.272335,357.982300 65.178505,348.332397 
	C67.901360,345.679993 69.018837,342.907623 69.007988,339.100708 
	C68.895897,299.774261 68.937317,260.447388 68.940071,221.120636 
	C68.940750,211.518768 69.787140,210.683823 79.527046,210.681427 
	C99.856987,210.676422 120.186920,210.679688 140.516861,210.679550 
	C142.321091,210.679535 144.125320,210.679550 145.676636,210.679550 
	C145.676636,205.166611 145.676682,200.059753 145.676620,194.952881 
	C145.676239,161.125198 145.659500,127.297485 145.704147,93.469864 
	C145.708038,90.528198 145.277710,88.144867 142.879410,85.923317 
	C137.506302,80.946190 136.825653,72.853683 142.622849,68.270607 
	C150.472137,62.065189 151.248383,54.975815 148.872894,46.361805 
	C148.350403,44.467194 148.410767,42.399311 148.301804,40.405807 
	C148.075668,36.268787 149.695389,33.104462 153.812943,31.995718 
	C156.792282,31.193466 158.191818,29.920441 157.326645,26.739561 
	C156.551697,23.890387 157.465225,21.600809 160.436356,20.956076 
	C163.801834,20.225775 165.182755,22.623446 165.966324,25.396177 
	C166.188751,26.183332 166.183197,27.042274 166.224564,27.871170 
	C166.266068,28.702339 166.292572,29.541512 166.228424,30.369646 
	C163.804047,61.669308 169.069458,91.804314 178.376465,121.672668 
	C186.927475,149.114777 193.878510,177.060471 201.255585,204.858307 
	C202.471832,209.441269 204.441925,210.836044 209.122253,210.813278 
	C222.238571,210.749435 235.395569,209.769257 248.427948,212.678238 
	C275.862000,218.801910 294.743134,239.828857 298.470093,267.662567 
	C300.499207,282.816284 298.384460,296.778595 290.250732,310.149109 
z"/>
<path fill="#000000" opacity="1.000000" stroke="none" 
	d="
M797.959717,355.811096 
	C811.602783,354.202606 823.442444,348.553589 836.213684,342.199158 
	C836.213684,351.783081 836.234863,360.194031 836.196411,368.604706 
	C836.188416,370.349976 834.849976,371.225464 833.483032,371.891113 
	C781.070801,397.414581 715.410095,379.273193 693.482422,321.394928 
	C671.581360,263.586792 711.529175,211.540741 761.360962,200.785416 
	C785.887268,195.491837 809.637207,199.341980 832.707703,208.513153 
	C834.447144,209.204636 836.241150,209.834167 836.247009,212.144684 
	C836.267456,220.270737 836.254944,228.396866 836.254944,236.513840 
	C832.775513,237.192230 830.599121,235.349274 828.245056,234.335892 
	C812.467651,227.544067 796.238770,223.624939 778.836975,224.204407 
	C739.052002,225.529205 708.830200,261.752991 715.153564,301.093140 
	C719.624451,328.908264 744.559998,352.476105 772.692749,355.717438 
	C780.992737,356.673767 789.235596,357.353821 797.959717,355.811096 
z"/>
<path fill="#000000" opacity="1.000000" stroke="none" 
	d="
M440.215240,224.294510 
	C402.314301,225.846085 373.035004,257.978882 375.378448,294.939056 
	C377.175812,323.286682 398.553680,347.510620 428.300049,354.580048 
	C450.591339,359.877716 471.527771,355.477661 491.528900,345.110352 
	C493.098022,344.296967 494.486633,342.836578 497.259705,343.581207 
	C497.259705,351.828400 497.324219,360.253235 497.222809,368.676056 
	C497.189667,371.429016 494.559570,371.908264 492.696381,372.751648 
	C474.775116,380.864563 456.130219,384.387665 436.375458,382.476166 
	C403.715485,379.315979 378.942383,363.495941 361.604034,336.112274 
	C340.534821,302.836182 345.847931,257.361420 373.207184,229.047211 
	C402.463928,198.769241 437.786743,193.113113 477.005249,202.932190 
	C482.792664,204.381195 488.371338,206.671143 494.031403,208.616302 
	C495.444611,209.101944 497.135498,209.657639 497.155457,211.435181 
	C497.250031,219.851212 497.197662,228.268921 497.197662,237.729477 
	C478.637390,229.241562 460.505737,222.962494 440.215240,224.294510 
z"/>
<path fill="#000000" opacity="1.000000" stroke="none" 
	d="
M547.678833,276.999939 
	C547.677734,254.339996 547.792114,232.179031 547.585144,210.021042 
	C547.540588,205.249313 549.000977,203.692612 553.829407,203.723297 
	C581.986267,203.902176 610.145264,203.868073 638.302551,203.714844 
	C642.732666,203.690765 644.769043,204.876633 644.383667,209.633942 
	C644.035034,213.938019 644.016113,218.316101 644.376221,222.617661 
	C644.778748,227.425186 642.690674,228.464737 638.296143,228.422821 
	C618.470703,228.233658 598.642334,228.333771 578.815063,228.340378 
	C572.326965,228.342529 572.317810,228.357361 572.313538,235.005356 
	C572.306152,246.466614 572.311462,257.927856 572.311462,268.917267 
	C574.124573,270.595947 575.690186,270.053162 577.132812,270.054138 
	C597.459961,270.067841 617.788208,270.164581 638.113342,269.958466 
	C642.855286,269.910370 644.798889,271.349121 644.385071,276.230255 
	C644.034424,280.366089 644.028748,284.578918 644.381653,288.714081 
	C644.793762,293.543304 642.960815,295.125244 638.170715,295.074158 
	C619.011963,294.869843 599.849976,294.974030 580.689148,294.963837 
	C579.689453,294.963318 578.681702,295.042145 577.691528,294.944031 
	C573.572388,294.535950 572.237122,296.333405 572.264709,300.449951 
	C572.418518,323.441864 572.334167,346.435394 572.328796,369.428375 
	C572.326965,377.194427 572.323669,377.196320 564.341492,377.202728 
	C560.675964,377.205658 556.994080,376.981354 553.349060,377.253632 
	C548.940796,377.582886 547.581238,375.792908 547.612000,371.470490 
	C547.772156,348.978516 547.685852,326.484741 547.684387,303.991608 
	C547.683777,295.161041 547.680969,286.330505 547.678833,276.999939 
z"/>
<path fill="#000000" opacity="1.000000" stroke="none" 
	d="
M782.204956,322.982361 
	C779.358093,321.838074 779.834473,319.631287 779.816833,317.708618 
	C779.758972,311.391785 779.795105,305.074036 779.795105,297.679871 
	C776.401855,300.587524 773.689941,302.886383 771.007690,305.219299 
	C769.432678,306.589203 767.977905,307.167328 766.331970,305.234985 
	C764.646362,303.256012 765.637451,302.028259 767.189392,300.662231 
	C770.666626,297.601654 774.055237,294.440338 777.679504,291.138245 
	C774.524292,287.035431 769.988831,285.334045 766.628662,282.229492 
	C764.810303,280.549316 760.277527,279.927155 762.782959,276.147949 
	C765.611328,271.881622 767.910156,276.349823 770.136719,277.554260 
	C773.142639,279.180206 775.853394,281.351837 779.777893,284.031616 
	C779.777893,277.105591 779.776245,271.359680 779.779114,265.613739 
	C779.779724,264.280670 779.809143,262.947540 779.801392,261.614594 
	C779.787537,259.217041 780.759766,257.832062 783.363159,257.906464 
	C785.873047,257.978180 786.317932,259.581726 786.318054,261.616913 
	C786.318359,266.782837 786.318237,271.948883 786.358398,277.114563 
	C786.370850,278.720886 786.511841,280.326172 786.616272,282.368103 
	C790.517944,280.903015 792.534485,277.910126 795.232300,275.863281 
	C796.903687,274.595215 798.320129,273.906342 799.994324,275.690491 
	C801.773743,277.586792 800.718262,278.972839 799.219543,280.312012 
	C795.757385,283.405579 792.302612,286.507385 788.591064,289.833252 
	C792.518677,294.175385 797.456543,296.670990 801.692810,300.034851 
	C803.369385,301.366180 805.645996,302.429413 803.582947,305.144012 
	C801.559998,307.805847 799.799500,305.998291 798.064392,304.798248 
	C794.553955,302.370422 791.087402,299.879272 786.332214,296.515472 
	C786.332214,304.828278 786.303467,311.730225 786.347046,318.631683 
	C786.363464,321.225037 786.066223,323.416138 782.204956,322.982361 
z"/>
<path fill="#000000" opacity="1.000000" stroke="none" 
	d="
M233.763458,127.942322 
	C233.763351,125.799454 233.679184,124.128914 233.782639,122.470062 
	C233.927689,120.144302 232.949646,116.871742 236.920044,116.988541 
	C240.719879,117.100334 239.919830,120.375000 240.009583,122.676849 
	C240.176743,126.964478 240.057556,131.263275 240.057556,135.918701 
	C243.441971,135.612976 244.724548,133.209518 246.613571,131.805222 
	C248.085251,130.711151 249.474243,129.997025 250.978973,131.658279 
	C252.617554,133.467316 251.244629,134.587326 250.065231,135.830078 
	C247.575150,138.453888 244.260986,140.301239 242.389816,143.843918 
	C244.652222,147.118668 248.405746,148.485275 251.222977,150.964294 
	C252.794998,152.347580 256.212738,153.119720 253.887695,156.168518 
	C251.655869,159.095078 249.799332,156.211609 248.002975,155.119507 
	C245.753479,153.751923 243.632019,152.173721 241.121231,150.458145 
	C239.271271,154.674347 240.305130,158.660873 240.045822,162.508255 
	C239.922836,164.333160 240.041229,166.176102 239.882721,167.996292 
	C239.722900,169.831650 238.902237,171.166748 236.747391,171.096619 
	C234.596420,171.026611 233.859726,169.697021 233.849670,167.809235 
	C233.820801,162.389038 233.839508,156.968552 233.839508,150.564667 
	C230.785110,153.049332 228.636749,154.805679 226.478165,156.549393 
	C225.307785,157.494812 224.146301,157.803711 222.993149,156.485703 
	C221.781708,155.101044 221.856781,153.909195 223.246689,152.630798 
	C226.044891,150.057053 229.229935,147.860596 231.607925,144.341202 
	C229.221939,140.781784 225.165985,139.298279 222.094238,136.663742 
	C220.715302,135.481064 217.995621,134.760025 219.675293,132.118088 
	C221.445221,129.334167 223.383942,131.139389 225.180344,132.298859 
	C227.672180,133.907166 229.752747,136.172928 233.040955,137.198776 
	C234.360687,134.300232 233.492661,131.291397 233.763458,127.942322 
z"/>
</svg>