<svg version="1.1" id="Layer_1" xmlns="http://www.w3.org/2000/svg" xmlns:xlink="http://www.w3.org/1999/xlink" x="0px" y="0px"
	 width="100%" viewBox="0 0 848 848" enable-background="new 0 0 848 848" xml:space="preserve">
<path fill="#000000" opacity="1.000000" stroke="none" 
	d="
M500.120667,463.666199 
	C494.456726,482.923462 482.494263,494.656464 462.639160,497.508575 
	C443.988525,500.187653 424.274872,489.714172 416.155121,472.377472 
	C414.270630,468.353760 412.010773,467.162476 407.809509,467.254120 
	C396.316559,467.504730 384.810089,467.146851 373.317902,467.414215 
	C368.880096,467.517487 367.159637,466.026978 366.622498,461.626007 
	C366.015442,456.652130 364.692047,451.717560 361.786774,447.350830 
	C366.676300,460.810730 367.177338,474.725800 366.063995,488.670258 
	C364.402191,509.484589 359.373962,529.636353 352.886230,549.442200 
	C348.634155,562.423157 343.703369,575.149719 338.591248,587.808228 
	C337.629456,590.189880 337.383331,592.472839 337.757660,595.083008 
	C338.298279,598.853088 338.413208,602.730164 338.262054,606.543823 
	C337.961945,614.116638 330.866394,620.659668 322.513519,621.238525 
	C319.693298,621.434021 316.792023,621.669067 314.028961,621.237854 
	C307.565094,620.229065 303.336548,622.784668 300.146729,628.302429 
	C298.161530,631.736450 295.390228,634.716187 292.969849,637.898315 
	C285.067322,648.288147 282.774719,648.819946 271.335358,642.860840 
	C269.434021,643.436096 268.777283,645.301086 267.677246,646.690674 
	C264.552643,650.637756 261.158630,651.691040 258.428619,649.461365 
	C255.753220,647.276245 255.785706,642.223083 258.762085,639.162781 
	C265.266083,632.475220 271.873596,625.887451 278.487122,619.307495 
	C287.108948,610.729492 295.715454,602.134216 304.466949,593.689819 
	C306.848907,591.391418 306.788483,588.729065 306.788055,585.889526 
	C306.779663,531.729614 306.781982,477.569733 306.782562,423.409851 
	C306.782593,421.243469 306.725067,419.074860 306.801636,416.911102 
	C307.005005,411.165161 309.169312,408.799896 314.890167,408.167786 
	C316.704071,407.967377 318.550507,408.029144 320.382111,408.026978 
	C355.377136,407.985657 390.372131,407.952728 425.367157,407.918365 
	C427.186768,407.916565 429.006348,407.918121 430.864899,407.338745 
	C426.710846,405.938263 422.350769,406.071167 418.128082,406.417908 
	C413.084778,406.831970 411.553223,405.151306 411.570740,400.028931 
	C411.744476,349.202545 411.639923,298.375244 411.741150,247.548462 
	C411.749634,243.288055 410.900208,240.093628 407.428192,237.121567 
	C400.770691,231.422714 400.772400,220.678314 406.908630,213.698502 
	C408.666840,211.698578 410.333984,209.472870 412.484283,207.991379 
	C418.335205,203.960281 418.722046,198.582275 417.431122,192.308990 
	C416.294281,186.784317 415.616028,181.157669 414.910889,175.553940 
	C414.212372,170.002731 417.327637,164.949799 422.890106,164.000565 
	C427.514374,163.211441 428.189423,160.846191 427.587860,157.066574 
	C427.483185,156.408890 427.376160,155.747726 427.336548,155.084198 
	C427.144409,151.865997 428.251587,149.388046 431.687866,148.864288 
	C434.924316,148.371002 437.098114,150.103287 438.315826,153.013809 
	C439.174561,155.066330 438.977661,157.269592 438.966492,159.434235 
	C438.860657,179.927917 438.529785,200.424271 438.771484,220.913864 
	C438.857788,228.231903 442.024902,235.122910 443.940094,242.158386 
	C458.346191,295.079468 472.881866,347.965271 487.352905,400.868713 
	C489.299408,407.984772 489.237885,407.931732 496.781616,408.020477 
	C512.413208,408.204407 528.036560,407.573456 543.650574,409.595123 
	C583.715271,414.782745 612.365173,444.447601 619.731018,484.034576 
	C628.715271,532.319885 593.895142,575.772583 550.809204,587.134888 
	C546.645630,588.232849 545.181885,589.988464 545.235779,594.293579 
	C545.448730,611.288635 545.180603,628.289795 545.394592,645.284912 
	C545.450806,649.750183 543.800293,651.047546 539.590942,651.040222 
	C483.598145,650.942871 427.605164,650.950806 371.612213,650.929504 
	C370.946106,650.929260 370.275482,650.933838 369.614716,650.863342 
	C367.573181,650.645447 365.267975,650.371216 365.245575,647.761841 
	C365.222351,645.057922 367.581940,644.824951 369.605530,644.810547 
	C376.770660,644.759399 383.936584,644.838013 391.102020,644.813782 
	C392.900574,644.807678 394.762421,645.213745 396.835327,644.129639 
	C395.264557,642.469299 393.391052,643.054016 391.751099,643.048462 
	C384.752380,643.024658 377.752869,643.145447 370.754578,643.092285 
	C368.248657,643.073303 365.076416,642.955322 365.251984,639.562439 
	C365.412994,636.449951 368.549805,636.815430 370.809235,636.796082 
	C377.807648,636.736145 384.807373,636.838440 391.806030,636.791382 
	C393.369781,636.780884 395.087341,637.338562 396.937286,635.715332 
	C392.932861,634.350525 389.169891,635.268555 385.512085,635.072754 
	C380.031372,634.779419 374.516388,635.597900 369.055084,634.625488 
	C367.260071,634.305908 365.038086,634.117126 365.181274,631.642029 
	C365.331909,629.039062 367.514343,628.725830 369.621643,628.718384 
	C378.287018,628.687683 386.952545,628.688660 395.617828,628.640991 
	C396.418732,628.636536 397.218231,628.370911 398.470825,628.145020 
	C398.229492,623.593689 395.626434,619.944885 394.545929,615.867310 
	C393.998108,613.799866 392.568390,611.375854 394.763336,609.937134 
	C397.366699,608.230713 398.952118,610.811096 400.479523,612.505127 
	C404.384338,616.835999 408.328674,621.136780 412.077850,625.600159 
	C413.953003,627.832581 416.030975,628.742371 418.970154,628.734314 
	C449.799408,628.649475 480.629181,628.626526 511.458191,628.749512 
	C515.465454,628.765442 517.145203,627.658752 517.037354,623.408813 
	C516.792236,613.749268 516.782288,604.076477 516.991638,594.415894 
	C517.088135,589.962219 515.170166,588.854553 511.210938,589.545166 
	C505.044983,590.620667 498.893005,589.756470 492.908813,588.512939 
	C485.429443,586.958679 482.520447,583.284363 482.690857,577.084167 
	C482.844757,571.484741 485.811462,568.226562 492.985168,566.826050 
	C499.657532,565.523376 506.456696,564.885803 513.172546,563.787537 
	C538.588989,559.631165 557.860229,541.428589 561.294373,516.363220 
	C565.756958,483.792114 546.820740,458.698639 516.739807,452.375061 
	C516.577393,452.340912 516.407166,452.344757 516.243896,452.313721 
	C502.541534,449.709839 502.541565,449.709717 500.120667,463.666199 
z"/>
<path fill="#000000" opacity="1.000000" stroke="none" 
	d="
M730.593872,291.171631 
	C727.169617,284.873260 726.260742,278.615234 728.216614,272.050507 
	C731.559265,260.831238 741.409302,256.279907 752.149536,260.811646 
	C755.507507,262.228546 758.443665,265.832611 761.925781,265.238464 
	C765.364319,264.651733 765.820190,259.833221 768.174011,257.289368 
	C772.798889,252.291168 780.336487,251.168381 786.970703,254.640747 
	C793.354370,257.982025 797.015259,266.441010 795.285095,273.852112 
	C793.719482,280.558350 788.150513,284.933411 781.372253,285.396698 
	C776.316895,285.742218 771.976257,283.748413 767.575317,282.006378 
	C765.072693,285.529388 761.876221,293.098053 760.998230,297.482452 
	C761.888672,298.957794 763.583435,298.977264 764.939453,299.300232 
	C768.591248,300.170013 770.365356,301.489746 768.983765,305.820465 
	C767.520691,310.406342 764.882263,309.984131 761.752991,308.446655 
	C757.682007,306.446533 755.703735,308.009094 754.337952,311.898926 
	C752.884216,316.038879 751.024658,320.036316 748.956177,325.027710 
	C745.167358,318.867401 741.925903,314.014008 745.503174,307.853485 
	C747.181702,304.962769 745.909668,303.362152 743.215027,302.018250 
	C738.240845,299.537537 733.856628,296.264771 730.593872,291.171631 
M737.542175,275.396484 
	C736.375366,285.368591 741.398254,292.234924 751.244141,293.819580 
	C752.566162,290.679260 753.878296,287.465820 755.265625,284.285217 
	C759.382996,274.845825 759.358459,274.760376 749.792847,270.591278 
	C744.228760,268.166199 741.157898,269.210175 737.542175,275.396484 
M773.796570,266.283752 
	C770.516541,272.032227 771.964233,274.758301 778.776611,275.661438 
	C783.886780,276.338928 787.101196,272.489410 785.534485,267.568268 
	C783.668091,261.705780 778.979126,260.935822 773.796570,266.283752 
z"/>
<path fill="#000000" opacity="1.000000" stroke="none" 
	d="
M715.301758,679.131592 
	C707.572144,687.710266 697.523010,689.589294 688.041565,684.497559 
	C678.639709,679.448486 673.383423,668.132019 676.046387,658.266907 
	C677.738831,651.997009 681.978577,647.992065 688.061707,645.921387 
	C689.925598,645.286987 691.858337,644.854492 693.841980,644.306763 
	C693.617065,642.039795 690.705627,640.676697 692.685120,637.887878 
	C696.051575,633.145020 697.498718,632.727051 701.982544,636.605286 
	C716.083557,648.801880 730.109558,661.086182 744.297974,673.179993 
	C747.151978,675.612732 747.218689,677.305847 744.711243,680.012451 
	C742.275696,682.641296 740.561584,683.652283 737.435974,680.740906 
	C731.743408,675.438416 725.632385,670.585144 719.060425,665.004761 
	C718.538513,670.351379 718.404236,675.002258 715.301758,679.131592 
M707.147339,673.703247 
	C713.882568,669.433960 712.999390,658.018250 708.244446,653.928406 
	C703.040527,649.452271 696.131165,649.121948 691.055542,653.532349 
	C685.852722,658.053284 684.677551,665.168823 688.252747,670.503967 
	C692.350708,676.619263 699.526489,678.047058 707.147339,673.703247 
z"/>
<path fill="#000000" opacity="1.000000" stroke="none" 
	d="
M537.078369,810.775879 
	C531.226624,793.549011 525.460388,776.708740 519.911804,759.796997 
	C519.136536,757.434021 516.088928,754.412292 520.944641,752.368713 
	C524.902527,750.703003 527.981384,750.205322 529.003479,755.802368 
	C537.021912,743.870728 546.026855,740.578491 556.151306,745.523560 
	C566.483704,750.570007 571.802795,763.508728 567.985901,774.311279 
	C563.909790,785.847534 555.845581,789.233643 539.302246,785.865417 
	C541.559448,792.607666 543.663757,798.997253 545.838196,805.362854 
	C548.762207,813.922791 548.785400,813.914856 539.659851,815.865234 
	C537.897034,814.793457 537.933533,812.774719 537.078369,810.775879 
M534.940308,774.469666 
	C536.383545,776.386414 538.320618,777.663574 540.459290,778.650391 
	C546.320679,781.354919 553.532654,778.972107 556.918640,773.237000 
	C560.213318,767.656555 558.841919,760.582764 553.708862,756.680359 
	C548.567566,752.771606 541.846252,752.798706 537.179626,756.746826 
	C532.098083,761.045959 531.185242,766.894714 534.940308,774.469666 
z"/>
<path fill="#000000" opacity="1.000000" stroke="none" 
	d="
M376.685669,815.852905 
	C378.087830,799.178589 379.409485,782.956299 380.963013,766.756226 
	C381.166412,764.635376 380.499664,761.030212 384.372009,761.273560 
	C387.590424,761.475830 392.057587,760.651611 391.262238,767.315918 
	C398.092987,762.737061 404.652435,760.065430 412.209198,763.285217 
	C416.885437,765.277771 420.242523,768.541321 422.592468,772.929932 
	C427.851776,782.751709 425.276306,795.746155 416.809265,802.317871 
	C407.745819,809.352478 399.333893,808.468445 388.644318,798.888184 
	C387.166534,807.021912 386.776642,814.843079 386.230652,822.641235 
	C386.014496,825.729309 385.628937,827.924561 381.331787,827.636902 
	C376.699371,827.326843 374.920898,825.882446 376.116394,821.253296 
	C376.526917,819.663879 376.502838,817.962158 376.685669,815.852905 
M389.026764,787.458130 
	C392.200623,795.532532 398.921844,798.985352 406.436005,796.401489 
	C412.150726,794.436401 415.879852,787.542358 414.517090,781.461853 
	C412.980194,774.604309 406.153198,770.177490 398.962067,771.375427 
	C392.417267,772.465698 387.928101,779.222534 389.026764,787.458130 
z"/>
<path fill="#000000" opacity="1.000000" stroke="none" 
	d="
M173.089050,197.608154 
	C189.107086,196.339050 197.220123,186.378571 201.905701,172.700409 
	C209.740433,175.723190 211.144974,178.935364 207.892822,185.764542 
	C198.473267,205.544586 174.038681,214.044083 156.542114,203.626724 
	C134.304901,190.386810 133.707275,159.234863 155.406494,143.681091 
	C156.892151,142.616180 158.459717,141.655319 160.042145,140.737366 
	C167.381958,136.479645 169.072800,136.947937 173.968948,144.579666 
	C173.013062,146.878220 170.547272,146.914536 168.727142,147.854950 
	C159.279541,152.736267 151.615646,159.294510 150.418091,170.510864 
	C148.836258,185.326385 156.961533,194.845993 173.089050,197.608154 
z"/>
<path fill="#000000" opacity="1.000000" stroke="none" 
	d="
M301.547119,739.526428 
	C308.196167,748.371216 311.024292,758.002747 308.794525,768.490234 
	C304.513916,788.623718 284.695740,800.080933 264.861603,794.366516 
	C258.998840,792.677368 253.764145,789.837280 249.102310,785.971130 
	C242.340637,780.363525 242.202957,778.605896 247.679764,771.035278 
	C250.459686,771.979004 251.973007,774.517212 254.001389,776.369629 
	C263.692444,785.219971 275.129364,787.650513 285.170898,782.888611 
	C299.567963,776.061218 303.368073,757.873047 292.849091,745.873047 
	C286.782532,738.952332 278.851471,735.980530 269.866943,735.371887 
	C268.064392,735.249756 266.190857,735.669861 264.490448,734.724426 
	C265.612305,726.062744 267.252533,724.656555 275.493378,725.623108 
	C285.837799,726.836487 294.551941,731.220276 301.547119,739.526428 
z"/>
<path fill="#000000" opacity="1.000000" stroke="none" 
	d="
M184.297867,626.378967 
	C169.267059,636.846252 154.472321,647.075989 139.559738,657.130859 
	C137.461609,658.545593 135.238266,662.144348 132.122162,657.992737 
	C129.691513,654.754456 127.726952,651.828125 133.025436,649.220947 
	C119.715347,644.869446 113.695000,636.338440 116.170692,625.859619 
	C118.948296,614.102905 130.083054,605.556152 140.934540,606.913757 
	C151.769226,608.269287 160.606171,614.174988 159.164520,631.363037 
	C164.441879,627.836304 169.318680,624.582825 174.189636,621.320618 
	C180.390671,617.167664 182.796005,618.277466 184.297867,626.378967 
M149.936859,638.331604 
	C153.404999,633.033142 153.761322,627.680786 149.668015,622.623108 
	C146.422180,618.612610 142.103287,616.588562 136.861206,617.798218 
	C131.074280,619.133667 127.013412,623.715454 126.382385,629.190063 
	C125.757622,634.610413 128.929962,640.028748 134.189133,642.524109 
	C139.458405,645.024231 144.335419,643.878479 149.936859,638.331604 
z"/>
<path fill="#000000" opacity="1.000000" stroke="none" 
	d="
M496.390442,791.026184 
	C489.640869,805.620667 480.694763,808.239197 464.641296,800.407715 
	C464.234863,803.109375 464.460205,806.179321 460.351562,806.295044 
	C456.955017,806.390808 454.705811,806.121765 454.278595,801.906006 
	C453.107880,790.354309 451.577118,778.839050 450.196869,767.308411 
	C449.806122,764.044373 452.233368,764.018127 454.383698,763.732544 
	C457.934814,763.260925 460.944336,763.564941 460.117767,770.062500 
	C463.760437,765.218140 466.965485,762.198975 471.372803,760.912354 
	C482.923645,757.540222 495.116638,765.519714 497.223511,777.896484 
	C497.953033,782.182190 498.202484,786.481628 496.390442,791.026184 
M461.255585,782.597107 
	C461.850952,792.660583 470.696075,798.621338 479.274780,794.740295 
	C485.288544,792.019653 488.164398,786.076843 486.658752,779.481628 
	C485.409454,774.009094 479.365204,769.410828 473.710083,769.630859 
	C467.369507,769.877502 462.484253,774.650940 461.255585,782.597107 
z"/>
<path fill="#000000" opacity="1.000000" stroke="none" 
	d="
M56.676041,457.005737 
	C56.606205,451.459808 59.241032,447.401489 61.936031,443.340271 
	C60.714893,441.612885 58.625050,443.319092 57.081367,441.664673 
	C56.215870,439.184235 56.750088,436.279205 56.725090,432.988586 
	C70.150276,431.879761 83.180328,430.856171 96.269356,430.621674 
	C98.887993,430.574738 99.439056,432.182068 99.215187,434.165344 
	C98.966782,436.365784 100.756409,439.416992 97.021309,440.382324 
	C96.087067,440.623810 95.101295,440.665924 93.538872,440.883087 
	C97.822723,444.644501 100.905556,448.658081 101.307320,454.111786 
	C101.630608,458.500275 101.171631,462.697083 98.710136,466.552338 
	C93.652992,474.472992 83.038330,478.841156 73.956482,476.610626 
	C63.371586,474.010986 57.438190,467.429718 56.676041,457.005737 
M73.368042,441.640381 
	C72.163467,442.512848 70.822792,443.247742 69.777641,444.281403 
	C64.962357,449.043854 64.875946,457.258026 69.498550,462.312195 
	C74.392914,467.663483 81.754951,468.052399 87.306335,463.252899 
	C92.087212,459.119446 93.367126,452.373596 90.378174,447.062286 
	C87.208984,441.430634 80.955353,439.237640 73.368042,441.640381 
z"/>
<path fill="#000000" opacity="1.000000" stroke="none" 
	d="
M657.951965,169.294250 
	C662.878845,160.398697 669.997803,155.607254 679.930542,155.731827 
	C690.769287,155.867767 696.707031,162.223999 698.784485,175.807587 
	C700.979614,175.222046 702.488403,171.743195 705.563354,174.680786 
	C710.093018,179.008087 710.362793,179.502213 705.874695,184.016357 
	C698.720947,191.211670 691.600647,198.440323 684.420898,205.609528 
	C682.625488,207.402267 681.301880,211.156631 677.826782,207.688187 
	C675.278992,205.145325 671.360413,202.790619 677.547119,198.597656 
	C668.932068,198.387390 662.401978,196.204178 658.445862,189.301193 
	C654.764343,182.877350 654.987427,176.298508 657.951965,169.294250 
M689.855042,171.731689 
	C684.587402,166.246674 678.783325,164.880966 673.349304,167.847885 
	C668.146362,170.688644 665.218506,177.191910 666.721558,182.698792 
	C668.184509,188.058594 671.895264,191.203323 677.136963,192.338150 
	C682.145142,193.422394 686.386169,191.482376 689.524109,187.612869 
	C693.419861,182.808884 693.509766,177.602158 689.855042,171.731689 
z"/>
<path fill="#000000" opacity="1.000000" stroke="none" 
	d="
M764.208984,506.379486 
	C762.556763,510.624054 763.250549,514.371521 765.209961,517.791321 
	C767.590576,521.946045 764.516174,523.682190 761.963562,525.306213 
	C758.350769,527.604797 757.804810,523.801392 756.799011,521.942627 
	C752.035767,513.140625 753.546936,501.638641 760.163452,494.552643 
	C766.489014,487.778320 776.780701,485.848297 785.950928,489.716553 
	C794.385010,493.274292 799.743713,501.913757 799.294434,511.229095 
	C798.675964,524.051819 786.478394,534.101501 773.895569,532.202759 
	C770.910400,531.752380 769.520203,530.707336 770.393433,527.234558 
	C772.499207,518.860779 774.208374,510.387573 776.103271,501.960266 
	C776.429138,500.510986 777.245667,498.895569 775.767639,497.809937 
	C774.453979,496.845032 772.899231,497.447388 771.494629,498.087494 
	C767.961853,499.697510 765.659729,502.410919 764.208984,506.379486 
M789.606445,507.197052 
	C788.864319,504.920319 788.388733,502.430054 785.009521,501.614136 
	C783.115234,508.322723 781.540100,514.852905 780.595459,521.799500 
	C787.892700,518.923035 789.738647,516.011719 789.606445,507.197052 
z"/>
<path fill="#000000" opacity="1.000000" stroke="none" 
	d="
M477.810852,83.331497 
	C468.946136,82.898972 460.623810,81.031586 451.706024,81.457001 
	C451.801514,86.063698 454.070953,88.912354 457.467133,90.869629 
	C462.503204,93.772003 467.741302,93.726303 472.562134,90.495682 
	C475.330963,88.640160 477.266235,88.294617 479.926758,90.778412 
	C482.646484,93.317451 482.285950,94.959396 479.751709,97.187759 
	C469.203278,106.463112 450.443726,102.782265 444.269012,89.950256 
	C440.257507,81.613663 440.948761,73.331993 446.585693,65.960953 
	C452.245300,58.560219 460.009796,55.767067 469.148163,57.793385 
	C477.918579,59.738117 483.291168,65.426109 485.633514,74.028366 
	C487.922668,82.435295 486.762177,83.886726 477.810852,83.331497 
M460.239594,73.435928 
	C465.189972,73.240097 470.116302,74.936844 475.478455,74.260109 
	C473.051788,68.455513 468.718933,66.516418 463.724243,66.516258 
	C459.783508,66.516129 456.183105,68.144714 454.117188,72.421555 
	C456.186493,72.752251 457.807892,73.011368 460.239594,73.435928 
z"/>
<path fill="#000000" opacity="1.000000" stroke="none" 
	d="
M794.708679,419.937988 
	C794.361450,414.499146 793.859253,409.523682 793.753540,404.539795 
	C793.683838,401.254181 792.669556,400.273926 789.237610,400.670563 
	C782.139465,401.490997 774.976929,401.750793 767.842285,402.261047 
	C764.865723,402.473877 762.661926,402.117615 762.612732,398.194275 
	C762.567200,394.565704 763.013794,392.098328 767.452454,391.873383 
	C779.082214,391.284119 790.698242,390.427063 802.321777,389.709839 
	C810.277222,389.218964 818.236084,388.783569 826.150879,388.325867 
	C827.897888,390.439331 827.867615,392.886353 828.019348,395.100037 
	C828.610840,403.727692 828.863159,412.378204 829.410828,421.009430 
	C829.599792,423.987335 828.658936,425.418579 825.563354,425.273895 
	C822.826050,425.145996 819.880981,426.048431 819.562805,421.494659 
	C819.180054,416.016510 818.647095,410.554688 818.608154,405.054749 
	C818.578369,400.843018 816.925842,398.419464 812.183105,399.230896 
	C810.397522,399.536377 808.526672,399.337524 806.695068,399.382233 
	C804.097473,399.445618 803.259155,400.872925 803.477905,403.322693 
	C803.995178,409.116608 804.154785,414.956970 804.977539,420.704285 
	C805.566406,424.817993 804.208984,426.428589 800.205750,426.946838 
	C796.010803,427.489899 794.800415,425.502655 794.786133,421.895447 
	C794.784180,421.396149 794.744446,420.896973 794.708679,419.937988 
z"/>
<path fill="#000000" opacity="1.000000" stroke="none" 
	d="
M525.046021,331.022766 
	C522.307007,332.321777 520.938721,337.815216 517.264282,333.869934 
	C513.387573,329.707458 518.671997,328.340302 520.571533,326.247742 
	C523.335815,323.202637 526.995056,321.016205 529.658203,317.259613 
	C526.484619,313.678131 522.339111,311.504059 518.689758,308.731964 
	C517.233032,307.625427 515.729736,306.578735 514.226746,305.534912 
	C512.172424,304.108154 511.224091,302.571716 513.054993,300.189362 
	C514.806885,297.909821 516.413330,298.771118 518.169067,300.029297 
	C522.586548,303.194855 527.016052,306.343658 532.664795,310.372101 
	C532.664795,301.952362 532.450928,294.882263 532.771118,287.836426 
	C532.897522,285.054077 530.498718,280.277863 536.178467,280.216858 
	C541.662720,280.157928 539.825439,284.814087 539.934082,287.727509 
	C540.178955,294.291290 540.010986,300.870453 540.010986,308.827179 
	C543.988342,305.381470 546.863953,302.952820 549.665405,300.441376 
	C551.554626,298.747650 553.241943,298.248871 555.194641,300.432434 
	C557.173340,302.645020 555.825684,303.974579 554.234070,305.395874 
	C550.286194,308.921204 546.355469,312.465759 541.587341,316.748566 
	C547.346069,320.893982 552.499817,324.665680 557.725464,328.334839 
	C559.776550,329.774963 560.914734,331.170715 559.029480,333.590302 
	C557.307495,335.800446 555.661743,335.056213 553.876770,333.800201 
	C549.687317,330.852264 545.483032,327.925507 540.657288,324.551453 
	C539.554260,330.647949 540.203613,336.066528 540.044556,341.432739 
	C539.970581,343.927155 540.019958,346.425323 540.019226,348.921783 
	C540.018494,351.650635 539.584412,353.930389 536.018494,353.890747 
	C532.472412,353.851349 532.671631,351.425507 532.672058,349.041321 
	C532.673462,341.439636 532.672607,333.837952 532.672607,325.664948 
	C529.148621,326.768402 527.610779,329.351379 525.046021,331.022766 
z"/>
<path fill="#000000" opacity="1.000000" stroke="none" 
	d="
M213.789246,737.645691 
	C202.755157,732.710754 199.059784,722.113586 200.149597,714.011230 
	C201.565125,703.487183 208.648819,696.349854 218.267822,694.817383 
	C228.258575,693.225708 237.174698,697.149048 241.804077,705.173828 
	C246.638641,713.554199 246.217209,723.984375 240.761230,730.984253 
	C235.142685,738.192688 225.115829,741.104187 215.560623,738.297791 
	C215.083603,738.157654 214.616989,737.981995 213.789246,737.645691 
M232.080383,725.577209 
	C232.724060,724.614014 233.490479,723.710266 233.990646,722.677551 
	C236.448151,717.603333 235.206543,711.665955 230.946091,707.758789 
	C226.692993,703.858337 220.781998,703.229065 215.711044,706.136963 
	C211.145828,708.754700 209.136917,713.723145 210.319595,719.471008 
	C212.266830,728.934692 222.749878,732.210022 232.080383,725.577209 
z"/>
<path fill="#000000" opacity="1.000000" stroke="none" 
	d="
M238.715851,159.286972 
	C226.506638,159.246078 218.422485,154.087540 215.205597,144.583939 
	C212.282516,135.948242 215.434357,124.726028 222.601212,119.287872 
	C230.571228,113.240280 239.250946,113.055305 248.001999,117.295738 
	C255.657623,121.005356 260.170532,129.599640 259.246216,138.457184 
	C258.242645,148.074387 253.357666,154.909943 244.003647,158.135696 
	C242.443481,158.673721 240.775742,158.899796 238.715851,159.286972 
M224.443863,140.710190 
	C224.920700,141.766327 225.268219,142.907303 225.896042,143.864380 
	C229.177002,148.865952 235.856461,150.835968 241.252930,148.468674 
	C247.397614,145.773163 250.807526,139.311157 249.148987,133.505173 
	C247.368042,127.270706 242.057205,123.709923 235.515472,124.364235 
	C228.236038,125.092331 224.104736,130.838486 224.443863,140.710190 
z"/>
<path fill="#000000" opacity="1.000000" stroke="none" 
	d="
M115.257294,265.441223 
	C120.369843,268.134918 120.508423,269.603027 116.159218,272.371307 
	C111.824844,275.130127 107.443039,277.814423 102.527863,280.876648 
	C106.899826,284.058899 111.633438,285.096893 115.865891,287.121246 
	C118.863960,288.555237 122.006645,289.685455 125.075638,290.973022 
	C127.430756,291.961090 129.790085,292.729797 128.304855,296.322052 
	C126.854309,299.830383 124.765045,298.931946 122.317192,297.896515 
	C115.447449,294.990570 108.551819,292.145813 101.148224,289.061005 
	C100.835098,293.860870 103.153564,297.256744 104.137924,300.959686 
	C104.738289,303.218170 105.260567,305.127472 102.275940,306.100800 
	C99.468277,307.016388 98.851097,305.196106 98.075111,303.240234 
	C96.065979,298.176300 95.021599,292.739716 92.127632,287.351288 
	C86.844276,290.618347 81.837502,293.820038 76.717308,296.828644 
	C74.660034,298.037506 72.428825,300.844177 70.109428,296.961670 
	C67.973419,293.386108 71.206070,292.718964 73.082878,291.458221 
	C77.066376,288.782257 81.152107,286.258514 85.587975,283.421631 
	C81.995346,280.282349 77.826706,279.544800 74.160362,277.849609 
	C70.236221,276.035156 66.195847,274.472137 62.206490,272.798676 
	C59.580166,271.696960 59.531887,269.921082 60.499706,267.514069 
	C61.577015,264.834717 63.196564,265.146637 65.277107,266.023438 
	C72.449173,269.045929 79.647385,272.006378 87.405739,275.227112 
	C87.488922,270.448669 85.405289,266.994629 84.417084,263.294922 
	C83.873077,261.258209 83.185776,259.511932 85.926697,258.418427 
	C88.988220,257.196991 89.738380,259.144653 90.510506,261.299774 
	C92.244644,266.140045 93.980621,270.979614 95.938492,276.440491 
	C103.014549,273.733337 108.515564,268.793060 115.257294,265.441223 
z"/>
<path fill="#000000" opacity="1.000000" stroke="none" 
	d="
M98.261536,590.072205 
	C87.119881,584.994141 82.221169,576.405090 83.754677,565.144653 
	C85.009636,555.929565 92.138329,548.327698 101.051201,546.700256 
	C110.151237,545.038574 120.435936,549.338257 124.987839,556.707520 
	C129.920975,564.694092 129.217590,575.849792 123.301430,583.454102 
	C117.504807,590.904724 108.622696,593.336914 98.261536,590.072205 
M117.454628,573.815918 
	C121.019638,566.872681 115.222046,558.638977 109.621811,556.859436 
	C103.177757,554.811890 97.169800,557.370667 94.386719,563.642395 
	C91.674980,569.753296 94.352127,577.155579 100.388275,580.236694 
	C106.938385,583.580078 112.977890,581.515625 117.454628,573.815918 
z"/>
<path fill="#000000" opacity="1.000000" stroke="none" 
	d="
M309.081909,87.039581 
	C313.019745,96.256561 316.676361,105.188652 320.541779,114.029434 
	C322.395538,118.269150 319.057007,118.630325 316.679901,119.933472 
	C313.812469,121.505402 312.222900,120.777977 311.030579,117.707458 
	C308.320618,110.728645 305.316711,103.864380 302.471100,96.937614 
	C300.919678,93.161186 298.409027,90.566399 294.097534,91.521866 
	C289.929382,92.445587 287.851257,95.524696 287.283142,99.768028 
	C286.593292,104.921028 289.265472,109.093185 290.999237,113.546951 
	C292.205872,116.646721 293.481079,119.719803 294.723999,122.805458 
	C296.617493,127.506058 293.970032,131.289215 288.968567,131.037323 
	C286.491089,130.912567 286.379761,128.728958 285.722321,127.152657 
	C281.622864,117.323563 277.551788,107.481804 273.596771,97.594032 
	C272.786469,95.568161 270.175415,93.112907 273.986267,91.341759 
	C277.049805,89.917908 280.345398,87.385086 282.760437,93.067780 
	C285.662933,86.955559 289.114838,82.172630 296.004578,81.680824 
	C301.093872,81.317543 305.603821,82.451836 309.081909,87.039581 
z"/>
<path fill="#000000" opacity="1.000000" stroke="none" 
	d="
M522.713440,90.655518 
	C520.536255,97.283699 519.369812,103.839798 516.644409,109.780220 
	C514.023987,109.919395 512.031799,109.078941 510.001740,108.382507 
	C508.307007,107.801102 507.545471,106.683929 508.057312,104.937828 
	C511.735474,92.390862 515.441223,79.851967 519.098083,67.446503 
	C527.154907,67.928070 528.121216,68.643799 528.223694,74.014153 
	C531.747070,73.121216 534.953064,71.328506 538.787476,71.605621 
	C547.638306,72.245239 553.714783,80.072105 551.427063,88.627060 
	C549.197815,96.963501 546.572205,105.193970 544.343933,113.530670 
	C543.389404,117.101768 541.698242,117.880180 538.206360,116.836876 
	C534.642273,115.771980 533.279236,114.368027 534.587830,110.468010 
	C536.856995,103.704712 538.497803,96.732506 540.683838,89.938568 
	C541.901672,86.153641 541.557983,83.037445 538.213684,80.703972 
	C534.685242,78.241989 531.290833,79.208481 528.051575,81.478310 
	C524.981750,83.629372 523.739563,86.852638 522.713440,90.655518 
z"/>
<path fill="#000000" opacity="1.000000" stroke="none" 
	d="
M729.817810,580.013916 
	C731.074768,575.319580 733.753174,573.049316 738.279236,572.339172 
	C742.178467,571.727295 745.952271,570.315613 749.989014,569.200256 
	C749.985168,564.749512 747.125854,561.715698 745.308350,558.333862 
	C741.503052,551.253174 741.505005,549.709534 746.853394,542.311584 
	C750.234070,545.743408 751.728088,550.240417 754.165161,554.101379 
	C756.641663,558.024658 758.062439,563.666199 761.572144,565.594177 
	C765.198853,567.586487 770.294434,563.830017 774.840088,563.028015 
	C777.702271,562.523010 780.377686,560.840393 784.008972,561.475220 
	C782.391663,565.483093 782.362122,570.136902 778.151978,572.085876 
	C774.628601,573.716980 770.660828,574.388062 766.870117,575.489929 
	C767.866760,580.697266 772.716370,583.772278 772.355957,588.659424 
	C772.130371,591.719604 770.399780,594.574463 768.333496,597.908813 
	C764.807678,594.453064 763.274048,590.219421 761.125488,586.468994 
	C755.381958,576.443359 758.054199,577.571838 746.810547,580.241150 
	C741.958496,581.393066 737.143616,582.700806 732.297485,583.878662 
	C728.815125,584.725098 728.524292,583.067871 729.817810,580.013916 
z"/>
<path fill="#000000" opacity="1.000000" stroke="none" 
	d="
M581.751099,136.485748 
	C572.895935,130.260376 569.639587,121.845238 571.926819,111.916733 
	C574.040649,102.740807 580.251404,96.813568 589.722961,95.160789 
	C598.631226,93.606308 606.236389,96.707222 612.046204,103.412743 
	C616.011780,107.989670 610.948242,110.984840 609.572815,115.257515 
	C605.827515,112.083565 603.673767,108.398575 599.931030,106.409172 
	C595.355652,103.977188 590.922607,104.199402 586.693970,106.855522 
	C582.498108,109.491020 580.976807,113.640892 581.346130,118.456154 
	C581.810242,124.507591 586.831116,129.170959 593.398804,129.647247 
	C595.848022,129.824844 598.320984,129.675980 600.792908,129.675980 
	C600.551392,137.809311 597.760620,140.239609 590.553467,139.416809 
	C587.503235,139.068573 584.753784,138.049011 581.751099,136.485748 
z"/>
<path fill="#000000" opacity="1.000000" stroke="none" 
	d="
M371.607178,92.788574 
	C372.883026,91.803070 373.644867,90.477951 375.240051,90.982353 
	C378.994781,99.928307 378.206696,102.273766 369.714081,105.907463 
	C360.830383,109.708473 352.752869,107.858284 345.671478,101.615227 
	C339.046143,95.774261 336.693054,85.833427 339.904846,77.350456 
	C343.317017,68.338356 350.328064,63.932121 359.611511,62.706425 
	C360.103210,62.641506 360.608459,62.679169 361.107422,62.669518 
	C370.248718,62.492672 371.573273,63.909164 371.166656,73.579529 
	C368.651031,73.962654 366.357330,72.812164 363.953308,72.467690 
	C357.297882,71.514008 350.200226,76.183563 348.603241,82.510635 
	C347.137695,88.317032 350.995789,94.910255 357.199982,97.049492 
	C362.822662,98.988213 367.179688,96.279022 371.607178,92.788574 
z"/>
<path fill="#000000" opacity="1.000000" stroke="none" 
	d="
M654.608582,754.371094 
	C656.816711,757.651794 658.933899,760.286011 654.073914,763.085632 
	C650.658630,765.052917 649.064636,764.640320 646.957031,761.446350 
	C636.608337,745.763184 626.084412,730.194824 615.512451,714.660583 
	C613.628296,711.892090 612.926208,709.975159 616.418396,707.824707 
	C619.571167,705.883240 621.551392,705.179382 624.042175,708.972046 
	C633.990906,724.121216 644.261841,739.058716 654.608582,754.371094 
z"/>
<path fill="#000000" opacity="1.000000" stroke="none" 
	d="
M809.158203,465.180603 
	C795.594666,464.164368 782.496765,463.191162 769.401611,462.184021 
	C763.075745,461.697479 762.260559,460.466156 763.318909,454.969177 
	C763.946899,451.707123 765.920410,451.555908 768.373657,451.740356 
	C783.460693,452.874695 798.545715,454.035248 813.632690,455.170502 
	C817.445618,455.457428 821.259705,455.795135 825.079285,455.908112 
	C829.259766,456.031799 829.619446,458.350555 829.458313,461.876099 
	C829.294617,465.457886 827.859314,466.573517 824.549072,466.287445 
	C819.580444,465.858032 814.600220,465.562286 809.158203,465.180603 
z"/>
<path fill="#000000" opacity="1.000000" stroke="none" 
	d="
M78.844307,402.320190 
	C65.017159,400.970184 51.653263,399.547272 38.269062,398.351624 
	C34.498634,398.014801 34.487282,395.703522 34.902733,393.114044 
	C35.270626,390.820984 34.958233,387.939758 38.985706,388.355530 
	C55.818596,390.093292 72.668861,391.663208 89.514442,393.277039 
	C91.827324,393.498627 94.148270,393.735168 96.467987,393.764069 
	C100.357582,393.812622 101.541328,395.712341 101.366219,399.472290 
	C101.177559,403.522980 99.336899,404.656403 95.622475,404.169525 
	C90.194633,403.458069 84.741959,402.936096 78.844307,402.320190 
z"/>
<path fill="#000000" opacity="1.000000" stroke="none" 
	d="
M152.780930,682.242310 
	C156.838959,678.717346 160.341522,676.473999 165.052475,681.530151 
	C168.275497,684.989441 173.118149,683.925232 177.508591,679.893311 
	C182.030716,675.740356 186.509537,671.514099 190.691727,667.025818 
	C193.774368,663.717529 195.684525,665.544739 198.053024,667.761230 
	C200.544708,670.092957 200.604752,671.842468 198.012009,674.292114 
	C190.165695,681.705383 182.562973,689.375854 174.811996,696.891113 
	C172.901276,698.743713 171.139191,701.763184 167.940628,698.427246 
	C165.485596,695.866821 161.919220,693.578613 167.880692,689.734741 
	C160.781097,689.709351 154.894119,689.578125 152.780930,682.242310 
z"/>
<path fill="#000000" opacity="1.000000" stroke="none" 
	d="
M87.800766,513.628662 
	C93.366791,512.313660 98.563248,511.180878 103.683594,509.771667 
	C107.457512,508.733002 108.998161,510.003143 109.832733,513.789246 
	C110.631676,517.413635 109.818184,518.853882 106.154388,519.656006 
	C95.617073,521.962891 85.172516,524.690552 74.656319,527.099182 
	C72.346817,527.628235 69.441475,529.371887 68.469543,524.898376 
	C67.714180,521.421570 66.399353,518.179260 72.849625,517.397095 
	C68.466019,514.877747 64.735626,513.071838 63.684166,508.854095 
	C63.170128,506.792145 61.278595,504.304382 64.642189,502.929169 
	C67.954254,501.575043 72.429916,503.270142 73.329369,506.034943 
	C75.696671,513.311768 79.861168,515.578308 87.800766,513.628662 
z"/>
<path fill="#000000" opacity="1.000000" stroke="none" 
	d="
M742.516418,618.456787 
	C744.665588,619.772156 746.531433,620.855713 748.343872,622.022461 
	C753.308838,625.218384 753.317200,625.730530 750.114258,630.443970 
	C748.443420,632.902771 746.887634,633.180298 744.386414,631.585938 
	C734.735779,625.434692 725.041687,619.346436 715.241028,613.438354 
	C712.053101,611.516663 712.352905,609.685974 714.075928,606.979187 
	C715.799255,604.271790 717.303589,602.531189 720.723328,604.761841 
	C727.806763,609.382324 735.038208,613.776001 742.516418,618.456787 
z"/>
<path fill="#000000" opacity="1.000000" stroke="none" 
	d="
M619.828003,151.942291 
	C625.721985,143.445328 631.406738,135.248520 637.105164,127.061218 
	C641.816956,120.291290 642.870728,120.255280 649.366455,127.093185 
	C644.192383,134.587479 638.937378,142.209183 633.670227,149.822479 
	C631.778320,152.557098 629.786133,155.225098 627.970581,158.008835 
	C626.401550,160.414398 624.883423,161.811234 622.052795,159.472092 
	C619.642944,157.480698 616.126648,156.121185 619.828003,151.942291 
z"/>
<path fill="#000000" opacity="1.000000" stroke="none" 
	d="
M663.150513,713.830139 
	C657.799133,707.450195 652.702637,701.321777 647.553406,695.237854 
	C641.678650,688.296570 641.705383,688.054321 649.898010,683.315552 
	C653.299133,685.655457 655.591431,689.148560 658.250305,692.275574 
	C663.843262,698.853149 669.295105,705.553345 674.992493,712.038330 
	C677.275879,714.637451 676.653992,716.275574 674.181152,718.080688 
	C671.921631,719.730042 669.925903,722.336121 667.215515,718.687073 
	C666.029480,717.090332 664.665405,715.625793 663.150513,713.830139 
z"/>
<path fill="#000000" opacity="1.000000" stroke="none" 
	d="
M596.252441,755.682861 
	C591.917847,747.413574 587.832397,739.430603 583.581970,731.536316 
	C581.738342,728.112305 584.235718,727.216431 586.376465,725.935181 
	C588.493347,724.668213 590.561401,723.468750 592.184509,726.554504 
	C598.197632,737.985474 604.205017,749.419373 610.273743,760.964722 
	C609.069092,761.912292 608.369629,762.602661 607.548218,763.086060 
	C602.035645,766.330078 602.020508,766.319519 599.001404,760.844604 
	C598.119812,759.245850 597.288818,757.619141 596.252441,755.682861 
z"/>
<path fill="#000000" opacity="1.000000" stroke="none" 
	d="
M413.268494,95.886581 
	C413.394836,100.798615 410.132233,100.083275 407.363495,100.323181 
	C404.193634,100.597862 403.265991,98.727478 403.081573,96.136848 
	C402.279968,84.876884 401.551819,73.611656 400.734070,62.352901 
	C400.506470,59.219505 401.723389,57.749279 404.949615,57.671505 
	C407.990509,57.598209 410.678955,57.600323 410.934662,61.652985 
	C411.269043,66.951927 411.738342,72.242210 412.105042,77.539307 
	C412.517670,83.499496 412.880615,89.463135 413.268494,95.886581 
z"/>
<path fill="#000000" opacity="1.000000" stroke="none" 
	d="
M397.725677,47.158092 
	C397.222198,41.315731 399.239838,38.242313 403.583679,37.716785 
	C407.718445,37.216545 411.377655,39.802166 412.017334,43.676109 
	C412.596405,47.183041 410.021851,51.044415 406.306671,51.872753 
	C402.371826,52.750061 399.577576,51.071152 397.725677,47.158092 
z"/>
<path fill="#000000" opacity="1.000000" stroke="none" 
	d="
M646.469482,116.139122 
	C645.099915,108.986076 649.274841,104.285561 655.023682,106.023598 
	C658.170776,106.975060 660.013062,109.189674 660.239014,112.517105 
	C660.479736,116.062363 658.909302,118.692123 655.554199,119.823265 
	C651.833618,121.077606 648.742798,119.968864 646.469482,116.139122 
z"/>
<path fill="#000000" opacity="1.000000" stroke="none" 
	d="
M674.749207,728.041870 
	C675.253540,723.834900 677.484924,721.541992 681.181152,721.048584 
	C684.217529,720.643372 686.745239,722.040039 688.359070,724.651001 
	C689.909485,727.159241 689.542542,729.768677 688.087585,732.216797 
	C686.279724,735.258972 683.339539,735.703979 680.232239,735.207153 
	C676.498413,734.610291 675.139038,731.868286 674.749207,728.041870 
z"/>
<path fill="#000000" opacity="1.000000" stroke="none" 
	d="
M609.562256,782.033936 
	C604.647339,778.428040 603.587646,775.071350 606.101440,771.474976 
	C608.510376,768.028503 611.823303,767.023376 615.638550,768.936890 
	C619.126953,770.686523 620.043640,773.893921 619.037537,777.368347 
	C617.734924,781.866577 614.148804,782.758667 609.562256,782.033936 
z"/>
<path fill="#000000" opacity="1.000000" stroke="none" 
	d="
M761.083008,643.243408 
	C755.816895,641.741150 753.862976,639.002075 754.681763,634.582153 
	C755.405518,630.675293 758.173706,629.027710 761.837219,628.988403 
	C765.565918,628.948486 769.083191,632.389160 768.820801,636.061707 
	C768.513428,640.365295 766.146057,643.109253 761.083008,643.243408 
z"/>
</svg>